<svg version="1.1" id="Layer_1" xmlns="http://www.w3.org/2000/svg" xmlns:xlink="http://www.w3.org/1999/xlink" x="0px" y="0px"
	 width="100%" viewBox="0 0 2906 882" enable-background="new 0 0 2906 882" xml:space="preserve">
<path fill="none" opacity="0" stroke="none" 
	d="
M1.000000,44.000000 
	C1.000000,29.667511 1.000000,15.335023 1.000000,1.001901 
	C969.608704,1.001267 1938.217407,1.001267 2906.913086,1.001267 
	C2906.913086,294.924713 2906.913086,588.849426 2906.913086,882.887085 
	C1938.333374,882.887085 969.666687,882.887085 1.000002,882.892090 
	C1.000000,868.565369 1.000000,854.233582 1.468657,839.450928 
	C266.501953,839.000000 531.066589,839.000000 795.661011,839.000000 
	C795.661011,573.755310 795.661011,308.935272 795.661011,44.000000 
	C530.548035,44.000000 265.774017,44.000000 1.000000,44.000000 
M1577.957031,476.295502 
	C1577.976562,474.963837 1577.769409,473.582275 1578.049683,472.307983 
	C1582.179199,453.532959 1588.655762,436.043915 1603.644287,422.775604 
	C1620.184814,408.133301 1639.466064,403.437500 1660.662476,407.435791 
	C1680.151245,411.111969 1693.190796,423.656525 1702.004272,440.981567 
	C1710.797119,458.266266 1714.521606,476.931213 1715.835205,495.983185 
	C1716.963379,512.345581 1716.898071,528.805481 1716.954224,545.223694 
	C1717.093384,585.885010 1716.620361,626.552368 1717.189331,667.206238 
	C1717.412598,683.148254 1723.652710,694.785278 1741.128052,700.045837 
	C1754.765137,704.150879 1768.499756,703.916382 1781.908081,699.797241 
	C1789.125122,697.580139 1796.462280,693.876526 1799.662231,686.405945 
	C1802.275146,680.306335 1804.717529,673.527466 1804.757446,667.034485 
	C1804.955933,634.789062 1804.166138,602.539307 1804.041260,570.289795 
	C1803.874634,527.295593 1804.293945,484.296997 1803.816406,441.307465 
	C1803.677612,428.808777 1802.299194,416.137421 1799.800171,403.889801 
	C1794.430908,377.574707 1780.186035,357.254028 1755.588501,345.296417 
	C1738.827148,337.148163 1720.583130,335.060120 1702.268311,334.117523 
	C1694.887451,333.737640 1687.441895,334.861237 1680.021240,334.959564 
	C1664.386353,335.166748 1649.665527,339.530640 1635.452515,345.345886 
	C1621.648315,350.993805 1608.392090,357.965698 1594.724365,363.966797 
	C1580.578003,370.178009 1566.302002,369.628448 1552.428589,362.985199 
	C1542.715088,358.333893 1533.451172,352.705109 1523.608032,348.372498 
	C1509.470093,342.149353 1495.239746,336.646545 1479.280396,335.621490 
	C1466.993164,334.832245 1454.930054,335.113617 1443.150879,337.630951 
	C1429.703979,340.504700 1416.486694,344.703674 1403.432617,349.106659 
	C1383.567871,355.806915 1363.718506,355.492615 1343.758911,350.301025 
	C1325.882690,345.651367 1307.829468,342.915955 1289.471680,346.092194 
	C1269.516846,349.544800 1258.281982,361.362213 1258.203857,381.939728 
	C1257.970093,443.516083 1258.617310,505.096283 1259.019287,566.674316 
	C1259.246216,601.420410 1259.399292,636.171021 1260.141113,670.907715 
	C1260.410767,683.537170 1266.439331,693.662170 1278.063354,699.496277 
	C1292.297241,706.640259 1307.183594,706.114197 1322.212280,702.353271 
	C1338.322021,698.321716 1347.022583,685.874023 1347.012573,668.600525 
	C1346.979370,611.102539 1347.008057,553.604553 1346.994995,496.106567 
	C1346.991089,479.373749 1350.028320,463.163879 1356.185913,447.671539 
	C1360.755371,436.175232 1367.490234,425.750641 1377.493530,418.304108 
	C1394.476074,405.661926 1414.183350,403.380554 1434.201172,407.294586 
	C1459.514160,412.244080 1473.257080,430.182709 1480.955322,453.486969 
	C1487.243286,472.521515 1487.655029,492.393433 1487.871948,512.112366 
	C1488.304321,551.436218 1487.910400,590.768494 1488.045654,630.096619 
	C1488.097046,645.009949 1488.277832,659.944458 1489.153198,674.824890 
	C1489.638916,683.078979 1493.483154,690.146118 1500.542603,695.181885 
	C1507.608276,700.222107 1515.456543,702.096436 1523.997559,703.250122 
	C1536.002319,704.871704 1547.486328,703.621521 1558.240234,698.774048 
	C1570.367920,693.307129 1575.695557,682.396057 1575.861816,669.678101 
	C1576.279907,637.687439 1576.076050,605.687317 1575.953979,573.691650 
	C1575.916748,563.939148 1575.096313,554.189880 1575.048340,544.437134 
	C1574.937744,521.943970 1574.350830,499.423035 1577.957031,476.295502 
M2591.620850,687.001892 
	C2592.408203,686.836975 2593.212158,686.727295 2593.980713,686.498779 
	C2604.193115,683.462524 2614.590088,682.754028 2624.965820,685.061768 
	C2632.305664,686.694275 2639.489258,689.073914 2646.682861,691.311829 
	C2663.355713,696.498779 2680.270996,698.156494 2697.320312,693.911255 
	C2711.387451,690.408508 2719.407715,682.478088 2719.959717,665.999756 
	C2720.199707,658.841064 2720.000000,651.667664 2720.000000,644.500916 
	C2720.000000,598.846313 2720.108887,553.191406 2719.955322,507.537354 
	C2719.874756,483.623657 2719.587402,459.704071 2718.883789,435.802124 
	C2718.572021,425.208923 2717.656006,414.539551 2715.857178,404.104309 
	C2712.506836,384.670715 2704.407227,367.104126 2690.912842,352.652985 
	C2679.727295,340.674835 2665.733887,332.458282 2650.249023,327.010284 
	C2625.897217,318.442627 2600.404297,316.592834 2574.962158,315.182739 
	C2562.104492,314.470123 2549.142822,315.771973 2536.225098,315.972687 
	C2520.681152,316.214203 2505.526611,318.764038 2490.596436,322.976196 
	C2465.057861,330.181274 2441.119629,340.304657 2423.968994,361.689636 
	C2414.761475,373.170410 2409.116211,386.424316 2410.111084,401.504181 
	C2410.756348,411.285492 2416.108398,417.959595 2425.276123,422.178436 
	C2434.174805,426.273621 2443.368408,426.367126 2452.639893,425.893829 
	C2460.906250,425.471832 2469.341064,425.010620 2477.320801,423.030762 
	C2492.068604,419.371582 2502.550293,408.462646 2514.120361,399.462128 
	C2521.389404,393.807220 2528.433838,387.407379 2536.606934,383.481506 
	C2547.805664,378.102234 2560.104492,376.743500 2572.729492,378.912292 
	C2592.437012,382.297760 2606.277344,392.577454 2612.325439,411.886993 
	C2617.469727,428.310730 2612.466553,440.409943 2598.562256,451.114868 
	C2586.954834,460.051697 2573.003906,462.117645 2559.368652,464.894592 
	C2542.585449,468.312653 2525.510986,470.371490 2508.818359,474.149048 
	C2484.136475,479.734741 2460.435303,488.235718 2438.960449,502.022614 
	C2421.260010,513.386353 2406.290527,527.605652 2396.081787,546.132202 
	C2385.842285,564.714783 2382.025879,584.637817 2383.771484,606.022766 
	C2385.112061,622.449768 2388.893311,637.799377 2396.680420,652.251404 
	C2408.500977,674.189026 2426.235840,689.367920 2449.505127,697.923157 
	C2462.125488,702.563416 2475.137451,705.957642 2488.747803,706.003540 
	C2502.908203,706.051331 2517.297363,707.544678 2531.175781,705.549255 
	C2551.833008,702.579224 2571.281494,694.427368 2591.620850,687.001892 
M2350.000000,627.500000 
	C2349.666504,588.749573 2349.354736,549.998962 2348.993408,511.248749 
	C2348.692627,478.998688 2348.696045,446.738861 2347.783203,414.505554 
	C2347.502197,404.582733 2345.287109,394.569580 2342.817871,384.888550 
	C2339.266846,370.966095 2332.682861,358.178345 2322.365479,348.134674 
	C2310.097656,336.192535 2295.470703,327.729462 2278.816650,322.983154 
	C2261.049805,317.919739 2242.879395,317.487213 2224.650391,318.111816 
	C2218.682373,318.316345 2212.594238,319.152161 2206.843994,320.730469 
	C2193.095459,324.504059 2179.388428,328.519135 2165.900146,333.126465 
	C2149.844727,338.610596 2133.869629,337.812103 2117.682373,334.324677 
	C2107.278076,332.083099 2096.896729,329.402649 2086.359131,328.212036 
	C2077.305664,327.189117 2068.027100,327.641602 2058.880859,328.096527 
	C2048.886475,328.593658 2039.381226,331.580078 2031.662109,338.053650 
	C2022.986450,345.329620 2019.118286,355.500854 2019.120361,366.535980 
	C2019.126587,401.120148 2019.863403,435.703705 2019.956177,470.288452 
	C2020.114868,529.451660 2019.925049,588.615845 2020.088623,647.779053 
	C2020.110718,655.773254 2020.932495,663.821838 2022.076660,671.745178 
	C2024.827637,690.796875 2039.304321,700.909729 2056.548584,701.834229 
	C2067.079102,702.398743 2077.753174,701.895447 2088.259277,700.839172 
	C2098.425293,699.817139 2107.887939,695.907166 2114.531494,687.772583 
	C2120.643799,680.288513 2122.929199,671.043213 2122.918457,661.507019 
	C2122.902832,647.588196 2122.224365,633.671448 2122.033691,619.750977 
	C2121.871582,607.920532 2121.913818,596.085266 2122.016602,584.253418 
	C2122.302490,551.336243 2122.398682,518.413391 2123.170898,485.506927 
	C2123.389893,476.166840 2125.161377,466.766632 2127.123047,457.586700 
	C2130.007812,444.084808 2135.136963,431.354919 2144.593018,420.986603 
	C2158.641602,405.582703 2177.167725,402.792450 2196.326660,405.413025 
	C2214.738281,407.931427 2227.044678,419.653503 2235.086670,436.259247 
	C2243.470947,453.571411 2246.271240,472.201965 2246.766357,490.907776 
	C2247.853516,531.971558 2247.699219,573.068848 2247.983154,614.153015 
	C2248.087891,629.318176 2247.931152,644.485291 2248.045654,659.650269 
	C2248.076416,663.726013 2248.307617,667.864868 2249.061035,671.858948 
	C2251.953125,687.188904 2259.874756,695.144836 2274.288818,698.926392 
	C2287.685547,702.441040 2301.356689,701.653259 2314.942383,699.973511 
	C2335.974609,697.372925 2350.332031,683.889832 2350.025146,660.997986 
	C2349.879883,650.167175 2350.000000,639.332764 2350.000000,627.500000 
M2766.000000,432.668823 
	C2766.000000,499.986328 2765.924072,567.304016 2766.088867,634.621094 
	C2766.111328,643.781860 2766.740967,653.031006 2768.131836,662.078918 
	C2770.595947,678.104248 2778.845459,689.921875 2795.165771,694.594116 
	C2806.443359,697.822693 2817.951904,698.746094 2829.714600,698.134155 
	C2837.889160,697.708984 2845.737061,696.901672 2853.616699,694.219360 
	C2869.792969,688.712708 2879.972168,674.397705 2879.931152,657.809631 
	C2879.761719,589.572815 2879.324707,521.336731 2879.002197,453.100311 
	C2878.658691,380.365112 2878.421875,307.629150 2877.872559,234.895538 
	C2877.812500,227.003357 2877.016602,218.814896 2874.751953,211.310059 
	C2871.101807,199.214493 2863.151123,189.856796 2850.696777,186.151062 
	C2833.867188,181.143463 2816.380371,181.854187 2799.350342,184.278412 
	C2779.177490,187.150009 2765.216064,205.710266 2765.111816,224.998627 
	C2764.800781,282.649994 2764.947754,340.304169 2765.045654,397.957031 
	C2765.064697,409.207550 2765.666748,420.457031 2766.000000,432.668823 
M1042.000000,269.500000 
	C1041.893799,253.877914 1043.127563,238.127075 1038.940430,222.822205 
	C1034.959473,208.271317 1026.379517,197.632889 1011.116028,194.049622 
	C995.035034,190.274445 978.705444,191.430099 962.487183,193.061615 
	C943.116516,195.010269 928.148499,215.132462 928.132324,233.745636 
	C928.086609,286.154572 928.718750,338.563751 928.987549,390.973358 
	C929.369995,465.544830 929.618652,540.117004 930.034546,614.688293 
	C930.135376,632.765198 929.892090,650.897705 931.241028,668.897217 
	C932.352844,683.733032 939.422058,696.135498 954.207520,701.493408 
	C972.680725,708.187561 991.814575,709.060547 1011.014893,704.470337 
	C1022.039917,701.834595 1031.278931,696.695068 1037.340088,686.392700 
	C1042.131470,678.248535 1043.601562,669.436523 1043.860962,660.437073 
	C1044.141602,650.704102 1043.091919,640.941101 1043.038452,631.188904 
	C1042.634644,557.450745 1042.258667,483.712280 1042.027222,409.973419 
	C1041.881348,363.482697 1042.000000,316.991180 1042.000000,269.500000 
M1090.999878,434.499542 
	C1091.333252,443.251740 1091.942749,452.003571 1091.955444,460.756226 
	C1092.040771,519.919434 1091.777344,579.084412 1092.181274,638.244995 
	C1092.265625,650.568665 1094.031250,662.988892 1096.182373,675.159607 
	C1098.268066,686.960510 1104.318970,697.168030 1116.139282,701.328552 
	C1124.866089,704.400085 1134.333496,706.117676 1143.584473,706.732178 
	C1152.327271,707.312988 1161.323242,706.308838 1170.023804,704.880432 
	C1195.397949,700.714661 1208.625000,684.067139 1208.786255,660.270447 
	C1209.141602,607.858887 1208.252441,555.439758 1208.028442,503.022980 
	C1207.878906,468.025574 1208.003906,433.027039 1207.998169,398.028992 
	C1207.995850,383.887146 1208.424927,369.751801 1205.051392,355.801392 
	C1199.282471,331.945953 1186.265625,320.412262 1163.318115,319.167206 
	C1151.789917,318.541718 1140.156128,319.459320 1128.589600,320.056915 
	C1116.742065,320.669067 1107.820435,326.844727 1101.025635,336.161621 
	C1093.924194,345.898651 1091.175415,357.168945 1091.059692,369.003967 
	C1090.849609,390.500702 1091.000000,412.000977 1090.999878,434.499542 
M1970.000000,622.500000 
	C1969.666748,580.094299 1969.214722,537.689148 1969.035034,495.282837 
	C1968.870483,456.462585 1968.986206,417.641113 1969.008057,378.820160 
	C1969.015137,366.371460 1967.495239,354.176666 1962.982544,342.500732 
	C1956.634033,326.075165 1944.268433,316.627472 1926.166138,316.065369 
	C1914.847412,315.713928 1903.507080,315.881317 1892.179443,316.034821 
	C1881.770264,316.175873 1872.853394,320.687988 1865.901245,327.867126 
	C1855.892822,338.202606 1852.090698,351.521088 1852.096680,365.613007 
	C1852.109009,394.689697 1852.879150,423.765656 1852.955078,452.842896 
	C1853.106567,510.824005 1852.813477,568.806824 1853.136841,626.786499 
	C1853.213501,640.529968 1854.186279,654.389099 1856.273071,667.960327 
	C1857.795410,677.860046 1861.031006,687.654053 1870.218262,694.098328 
	C1878.932495,700.210938 1888.832642,702.324524 1898.957520,702.819763 
	C1908.993042,703.310486 1919.149292,702.836548 1929.162720,701.862549 
	C1939.796021,700.828247 1949.660278,696.680054 1957.182739,689.060608 
	C1965.629639,680.505127 1969.505493,669.444580 1969.916382,657.486267 
	C1970.305298,646.169922 1970.000000,634.829712 1970.000000,622.500000 
M1858.406006,203.073441 
	C1851.311646,214.007828 1850.915894,226.375168 1852.232544,238.536819 
	C1853.399414,249.314713 1858.251587,258.726990 1867.689697,265.353546 
	C1878.454590,272.911652 1890.908081,273.954346 1903.222656,274.828217 
	C1915.272705,275.683380 1927.285645,273.998871 1938.782104,269.951447 
	C1947.232910,266.976288 1955.280273,263.144836 1960.255005,255.171707 
	C1963.881470,249.359650 1965.234741,242.893417 1966.241455,236.037491 
	C1968.476562,220.816711 1965.213013,207.580597 1954.209961,196.847794 
	C1943.964478,186.853851 1930.428955,184.837875 1917.006836,184.211121 
	C1907.745850,183.778687 1898.259155,184.580215 1889.112793,186.190308 
	C1877.456299,188.242294 1866.682861,192.833023 1858.406006,203.073441 
M1107.773315,269.978821 
	C1116.283447,274.972961 1125.712524,277.361542 1135.337646,277.847443 
	C1151.007324,278.638550 1166.700195,278.479797 1181.571899,272.033997 
	C1189.984985,268.387482 1197.222046,263.659241 1201.041138,254.833496 
	C1205.318970,244.947311 1206.932251,234.898346 1205.103882,224.091476 
	C1202.399292,208.104965 1194.016602,197.332962 1178.599976,191.914673 
	C1162.174561,186.141815 1145.363892,186.713577 1128.679077,189.341873 
	C1119.229126,190.830505 1109.925537,194.356415 1102.631592,201.010681 
	C1089.342529,213.134277 1089.651855,229.061951 1091.611328,245.052383 
	C1092.889526,255.483444 1099.684204,262.862366 1107.773315,269.978821 
z"/>
<path fill="#FFFFFF" opacity="1.000000" stroke="none" 
	d="
M1.000000,44.468658 
	C265.774017,44.000000 530.548035,44.000000 795.661011,44.000000 
	C795.661011,308.935272 795.661011,573.755310 795.661011,839.000000 
	C531.066589,839.000000 266.501953,839.000000 1.468657,839.000000 
	C1.000000,574.312439 1.000000,309.624878 1.000000,44.468658 
M216.522644,494.986481 
	C209.617233,502.887482 202.763184,510.834106 195.795486,518.679749 
	C182.046341,534.161377 168.210495,549.566040 154.463242,565.049377 
	C150.574005,569.429749 146.867493,573.972351 143.077179,578.440552 
	C143.279129,578.815186 143.481094,579.189819 143.683044,579.564453 
	C211.707001,554.402527 279.730957,529.240601 348.424469,503.830963 
	C348.711517,506.408844 348.793976,508.475006 349.188141,510.479858 
	C352.426361,526.949768 355.785828,543.395996 358.983185,559.873718 
	C362.122406,576.051880 365.051270,592.270813 368.189362,608.449219 
	C371.385742,624.928223 374.778290,641.369202 377.985016,657.846252 
	C380.824554,672.436768 383.470856,687.064880 386.305359,701.656372 
	C389.136932,716.232666 392.145416,730.774536 394.984497,745.349426 
	C397.393799,757.717896 399.657166,770.114807 402.056183,782.485291 
	C402.166809,783.055847 402.963501,783.868103 403.461456,783.883240 
	C403.956512,783.898193 404.814453,783.120544 404.932861,782.566467 
	C405.709534,778.932434 406.318634,775.262878 407.001434,771.608398 
	C410.058289,755.247803 413.049011,738.874390 416.202698,722.532410 
	C419.383423,706.050171 422.779205,689.609558 425.985779,673.132141 
	C428.825134,658.541870 431.468079,643.913330 434.317169,629.325012 
	C437.813080,611.424500 441.508240,593.562744 444.974365,575.656616 
	C447.493225,562.644104 449.727905,549.576721 452.187775,536.552429 
	C454.044678,526.720886 456.203552,516.944275 457.917389,507.089203 
	C458.475281,503.881073 459.474152,504.047760 462.127777,504.903748 
	C480.743134,510.908447 499.431641,516.686157 518.091797,522.552246 
	C542.409851,530.197021 566.727234,537.844116 591.037720,545.512878 
	C615.802612,553.325195 640.561340,561.156982 665.317688,568.996338 
	C676.496704,572.536377 687.663269,576.115479 700.313843,580.148132 
	C698.534485,577.710876 697.808105,576.263489 696.687805,575.252747 
	C687.538086,566.997742 678.260071,558.884766 669.127747,550.610779 
	C657.282104,539.878479 645.534912,529.037659 633.745300,518.243530 
	C621.832581,507.336700 609.913086,496.437103 598.008911,485.520905 
	C585.859863,474.380005 573.689392,463.262024 561.596130,452.060699 
	C551.049805,442.292206 540.639404,432.376892 530.086853,422.615204 
	C524.912842,417.828949 519.552429,413.244141 513.895203,408.230316 
	C517.535889,405.048401 521.266602,401.874817 524.901672,398.595184 
	C538.954590,385.916382 552.973022,373.199341 567.012085,360.505188 
	C577.263550,351.235748 587.568542,342.024933 597.775208,332.706512 
	C610.317749,321.255524 622.746948,309.680359 635.300964,298.242249 
	C639.651794,294.278168 644.327637,290.670898 648.680054,286.708496 
	C654.854797,281.087067 660.867737,275.287872 667.531494,269.017365 
	C665.749390,269.017365 664.903870,268.869171 664.127930,269.039001 
	C646.041870,272.997986 628.000000,277.167969 609.874512,280.935486 
	C584.914368,286.123688 559.856995,290.845306 534.906311,296.077179 
	C510.625397,301.168579 486.431549,306.674622 462.183685,311.925659 
	C459.784576,312.445190 458.546692,311.637634 457.879303,308.688446 
	C451.663818,281.221710 445.209045,253.808701 438.735107,226.401031 
	C433.890808,205.892441 428.855438,185.428955 424.014526,164.919571 
	C417.619263,137.824661 411.336975,110.703102 404.957245,83.604500 
	C404.815887,83.004173 404.087585,82.542023 403.633087,82.015404 
	C403.089539,82.619804 402.224609,83.145042 402.053162,83.841087 
	C400.629150,89.622551 399.348816,95.439194 397.995850,101.238380 
	C391.889374,127.412300 385.822845,153.595657 379.644836,179.752686 
	C374.837921,200.104782 369.842102,220.412216 365.013550,240.759262 
	C359.626801,263.458649 354.281738,286.168335 349.067322,308.907654 
	C348.418213,311.738373 347.676392,312.225098 344.770264,311.453369 
	C337.764557,309.592957 330.567413,308.468323 323.510559,306.782898 
	C301.763733,301.589020 280.060944,296.210510 258.313934,291.017395 
	C231.553009,284.626953 204.770447,278.326569 177.983276,272.046814 
	C172.867111,270.847412 167.686188,269.924377 161.808136,268.725525 
	C173.352325,281.165771 184.105164,292.817841 194.931244,304.401398 
	C205.657227,315.877838 216.461929,327.280731 227.223236,338.724213 
	C237.642365,349.803864 248.005875,360.936218 258.474884,371.968475 
	C269.974670,384.086945 281.567047,396.117554 292.962311,408.022675 
	C267.484894,437.023346 242.252914,465.744598 216.522644,494.986481 
z"/>
<path fill="#FFFFFF" opacity="1.000000" stroke="none" 
	d="
M1577.702271,476.667786 
	C1574.350830,499.423035 1574.937744,521.943970 1575.048340,544.437134 
	C1575.096313,554.189880 1575.916748,563.939148 1575.953979,573.691650 
	C1576.076050,605.687317 1576.279907,637.687439 1575.861816,669.678101 
	C1575.695557,682.396057 1570.367920,693.307129 1558.240234,698.774048 
	C1547.486328,703.621521 1536.002319,704.871704 1523.997559,703.250122 
	C1515.456543,702.096436 1507.608276,700.222107 1500.542603,695.181885 
	C1493.483154,690.146118 1489.638916,683.078979 1489.153198,674.824890 
	C1488.277832,659.944458 1488.097046,645.009949 1488.045654,630.096619 
	C1487.910400,590.768494 1488.304321,551.436218 1487.871948,512.112366 
	C1487.655029,492.393433 1487.243286,472.521515 1480.955322,453.486969 
	C1473.257080,430.182709 1459.514160,412.244080 1434.201172,407.294586 
	C1414.183350,403.380554 1394.476074,405.661926 1377.493530,418.304108 
	C1367.490234,425.750641 1360.755371,436.175232 1356.185913,447.671539 
	C1350.028320,463.163879 1346.991089,479.373749 1346.994995,496.106567 
	C1347.008057,553.604553 1346.979370,611.102539 1347.012573,668.600525 
	C1347.022583,685.874023 1338.322021,698.321716 1322.212280,702.353271 
	C1307.183594,706.114197 1292.297241,706.640259 1278.063354,699.496277 
	C1266.439331,693.662170 1260.410767,683.537170 1260.141113,670.907715 
	C1259.399292,636.171021 1259.246216,601.420410 1259.019287,566.674316 
	C1258.617310,505.096283 1257.970093,443.516083 1258.203857,381.939728 
	C1258.281982,361.362213 1269.516846,349.544800 1289.471680,346.092194 
	C1307.829468,342.915955 1325.882690,345.651367 1343.758911,350.301025 
	C1363.718506,355.492615 1383.567871,355.806915 1403.432617,349.106659 
	C1416.486694,344.703674 1429.703979,340.504700 1443.150879,337.630951 
	C1454.930054,335.113617 1466.993164,334.832245 1479.280396,335.621490 
	C1495.239746,336.646545 1509.470093,342.149353 1523.608032,348.372498 
	C1533.451172,352.705109 1542.715088,358.333893 1552.428589,362.985199 
	C1566.302002,369.628448 1580.578003,370.178009 1594.724365,363.966797 
	C1608.392090,357.965698 1621.648315,350.993805 1635.452515,345.345886 
	C1649.665527,339.530640 1664.386353,335.166748 1680.021240,334.959564 
	C1687.441895,334.861237 1694.887451,333.737640 1702.268311,334.117523 
	C1720.583130,335.060120 1738.827148,337.148163 1755.588501,345.296417 
	C1780.186035,357.254028 1794.430908,377.574707 1799.800171,403.889801 
	C1802.299194,416.137421 1803.677612,428.808777 1803.816406,441.307465 
	C1804.293945,484.296997 1803.874634,527.295593 1804.041260,570.289795 
	C1804.166138,602.539307 1804.955933,634.789062 1804.757446,667.034485 
	C1804.717529,673.527466 1802.275146,680.306335 1799.662231,686.405945 
	C1796.462280,693.876526 1789.125122,697.580139 1781.908081,699.797241 
	C1768.499756,703.916382 1754.765137,704.150879 1741.128052,700.045837 
	C1723.652710,694.785278 1717.412598,683.148254 1717.189331,667.206238 
	C1716.620361,626.552368 1717.093384,585.885010 1716.954224,545.223694 
	C1716.898071,528.805481 1716.963379,512.345581 1715.835205,495.983185 
	C1714.521606,476.931213 1710.797119,458.266266 1702.004272,440.981567 
	C1693.190796,423.656525 1680.151245,411.111969 1660.662476,407.435791 
	C1639.466064,403.437500 1620.184814,408.133301 1603.644287,422.775604 
	C1588.655762,436.043915 1582.179199,453.532959 1578.049683,472.307983 
	C1577.769409,473.582275 1577.976562,474.963837 1577.702271,476.667786 
z"/>
<path fill="#FFFFFF" opacity="1.000000" stroke="none" 
	d="
M2591.202637,687.016357 
	C2571.281494,694.427368 2551.833008,702.579224 2531.175781,705.549255 
	C2517.297363,707.544678 2502.908203,706.051331 2488.747803,706.003540 
	C2475.137451,705.957642 2462.125488,702.563416 2449.505127,697.923157 
	C2426.235840,689.367920 2408.500977,674.189026 2396.680420,652.251404 
	C2388.893311,637.799377 2385.112061,622.449768 2383.771484,606.022766 
	C2382.025879,584.637817 2385.842285,564.714783 2396.081787,546.132202 
	C2406.290527,527.605652 2421.260010,513.386353 2438.960449,502.022614 
	C2460.435303,488.235718 2484.136475,479.734741 2508.818359,474.149048 
	C2525.510986,470.371490 2542.585449,468.312653 2559.368652,464.894592 
	C2573.003906,462.117645 2586.954834,460.051697 2598.562256,451.114868 
	C2612.466553,440.409943 2617.469727,428.310730 2612.325439,411.886993 
	C2606.277344,392.577454 2592.437012,382.297760 2572.729492,378.912292 
	C2560.104492,376.743500 2547.805664,378.102234 2536.606934,383.481506 
	C2528.433838,387.407379 2521.389404,393.807220 2514.120361,399.462128 
	C2502.550293,408.462646 2492.068604,419.371582 2477.320801,423.030762 
	C2469.341064,425.010620 2460.906250,425.471832 2452.639893,425.893829 
	C2443.368408,426.367126 2434.174805,426.273621 2425.276123,422.178436 
	C2416.108398,417.959595 2410.756348,411.285492 2410.111084,401.504181 
	C2409.116211,386.424316 2414.761475,373.170410 2423.968994,361.689636 
	C2441.119629,340.304657 2465.057861,330.181274 2490.596436,322.976196 
	C2505.526611,318.764038 2520.681152,316.214203 2536.225098,315.972687 
	C2549.142822,315.771973 2562.104492,314.470123 2574.962158,315.182739 
	C2600.404297,316.592834 2625.897217,318.442627 2650.249023,327.010284 
	C2665.733887,332.458282 2679.727295,340.674835 2690.912842,352.652985 
	C2704.407227,367.104126 2712.506836,384.670715 2715.857178,404.104309 
	C2717.656006,414.539551 2718.572021,425.208923 2718.883789,435.802124 
	C2719.587402,459.704071 2719.874756,483.623657 2719.955322,507.537354 
	C2720.108887,553.191406 2720.000000,598.846313 2720.000000,644.500916 
	C2720.000000,651.667664 2720.199707,658.841064 2719.959717,665.999756 
	C2719.407715,682.478088 2711.387451,690.408508 2697.320312,693.911255 
	C2680.270996,698.156494 2663.355713,696.498779 2646.682861,691.311829 
	C2639.489258,689.073914 2632.305664,686.694275 2624.965820,685.061768 
	C2614.590088,682.754028 2604.193115,683.462524 2593.980713,686.498779 
	C2593.212158,686.727295 2592.408203,686.836975 2591.202637,687.016357 
M2490.000000,588.386108 
	C2490.841309,602.991943 2496.924561,614.915283 2509.196045,622.936462 
	C2529.080811,635.934265 2550.070557,634.846924 2570.784424,625.453003 
	C2582.334961,620.214783 2592.283691,612.358948 2600.375000,602.234253 
	C2612.868652,586.601013 2619.362549,569.226501 2614.761963,549.359009 
	C2612.385742,539.097473 2606.237549,531.100952 2594.961914,527.814880 
	C2585.143555,524.953552 2575.376221,525.361084 2565.833740,527.218140 
	C2545.672119,531.141724 2526.443359,537.810303 2510.155518,551.001648 
	C2498.544678,560.405151 2489.035156,571.047546 2490.000000,588.386108 
z"/>
<path fill="#FFFFFF" opacity="1.000000" stroke="none" 
	d="
M2350.000000,628.000000 
	C2350.000000,639.332764 2349.879883,650.167175 2350.025146,660.997986 
	C2350.332031,683.889832 2335.974609,697.372925 2314.942383,699.973511 
	C2301.356689,701.653259 2287.685547,702.441040 2274.288818,698.926392 
	C2259.874756,695.144836 2251.953125,687.188904 2249.061035,671.858948 
	C2248.307617,667.864868 2248.076416,663.726013 2248.045654,659.650269 
	C2247.931152,644.485291 2248.087891,629.318176 2247.983154,614.153015 
	C2247.699219,573.068848 2247.853516,531.971558 2246.766357,490.907776 
	C2246.271240,472.201965 2243.470947,453.571411 2235.086670,436.259247 
	C2227.044678,419.653503 2214.738281,407.931427 2196.326660,405.413025 
	C2177.167725,402.792450 2158.641602,405.582703 2144.593018,420.986603 
	C2135.136963,431.354919 2130.007812,444.084808 2127.123047,457.586700 
	C2125.161377,466.766632 2123.389893,476.166840 2123.170898,485.506927 
	C2122.398682,518.413391 2122.302490,551.336243 2122.016602,584.253418 
	C2121.913818,596.085266 2121.871582,607.920532 2122.033691,619.750977 
	C2122.224365,633.671448 2122.902832,647.588196 2122.918457,661.507019 
	C2122.929199,671.043213 2120.643799,680.288513 2114.531494,687.772583 
	C2107.887939,695.907166 2098.425293,699.817139 2088.259277,700.839172 
	C2077.753174,701.895447 2067.079102,702.398743 2056.548584,701.834229 
	C2039.304321,700.909729 2024.827637,690.796875 2022.076660,671.745178 
	C2020.932495,663.821838 2020.110718,655.773254 2020.088623,647.779053 
	C2019.925049,588.615845 2020.114868,529.451660 2019.956177,470.288452 
	C2019.863403,435.703705 2019.126587,401.120148 2019.120361,366.535980 
	C2019.118286,355.500854 2022.986450,345.329620 2031.662109,338.053650 
	C2039.381226,331.580078 2048.886475,328.593658 2058.880859,328.096527 
	C2068.027100,327.641602 2077.305664,327.189117 2086.359131,328.212036 
	C2096.896729,329.402649 2107.278076,332.083099 2117.682373,334.324677 
	C2133.869629,337.812103 2149.844727,338.610596 2165.900146,333.126465 
	C2179.388428,328.519135 2193.095459,324.504059 2206.843994,320.730469 
	C2212.594238,319.152161 2218.682373,318.316345 2224.650391,318.111816 
	C2242.879395,317.487213 2261.049805,317.919739 2278.816650,322.983154 
	C2295.470703,327.729462 2310.097656,336.192535 2322.365479,348.134674 
	C2332.682861,358.178345 2339.266846,370.966095 2342.817871,384.888550 
	C2345.287109,394.569580 2347.502197,404.582733 2347.783203,414.505554 
	C2348.696045,446.738861 2348.692627,478.998688 2348.993408,511.248749 
	C2349.354736,549.998962 2349.666504,588.749573 2350.000000,628.000000 
z"/>
<path fill="#FFFFFF" opacity="1.000000" stroke="none" 
	d="
M2766.000000,432.187927 
	C2765.666748,420.457031 2765.064697,409.207550 2765.045654,397.957031 
	C2764.947754,340.304169 2764.800781,282.649994 2765.111816,224.998627 
	C2765.216064,205.710266 2779.177490,187.150009 2799.350342,184.278412 
	C2816.380371,181.854187 2833.867188,181.143463 2850.696777,186.151062 
	C2863.151123,189.856796 2871.101807,199.214493 2874.751953,211.310059 
	C2877.016602,218.814896 2877.812500,227.003357 2877.872559,234.895538 
	C2878.421875,307.629150 2878.658691,380.365112 2879.002197,453.100311 
	C2879.324707,521.336731 2879.761719,589.572815 2879.931152,657.809631 
	C2879.972168,674.397705 2869.792969,688.712708 2853.616699,694.219360 
	C2845.737061,696.901672 2837.889160,697.708984 2829.714600,698.134155 
	C2817.951904,698.746094 2806.443359,697.822693 2795.165771,694.594116 
	C2778.845459,689.921875 2770.595947,678.104248 2768.131836,662.078918 
	C2766.740967,653.031006 2766.111328,643.781860 2766.088867,634.621094 
	C2765.924072,567.304016 2766.000000,499.986328 2766.000000,432.187927 
z"/>
<path fill="#FFFFFF" opacity="1.000000" stroke="none" 
	d="
M1042.000000,270.000000 
	C1042.000000,316.991180 1041.881348,363.482697 1042.027222,409.973419 
	C1042.258667,483.712280 1042.634644,557.450745 1043.038452,631.188904 
	C1043.091919,640.941101 1044.141602,650.704102 1043.860962,660.437073 
	C1043.601562,669.436523 1042.131470,678.248535 1037.340088,686.392700 
	C1031.278931,696.695068 1022.039917,701.834595 1011.014893,704.470337 
	C991.814575,709.060547 972.680725,708.187561 954.207520,701.493408 
	C939.422058,696.135498 932.352844,683.733032 931.241028,668.897217 
	C929.892090,650.897705 930.135376,632.765198 930.034546,614.688293 
	C929.618652,540.117004 929.369995,465.544830 928.987549,390.973358 
	C928.718750,338.563751 928.086609,286.154572 928.132324,233.745636 
	C928.148499,215.132462 943.116516,195.010269 962.487183,193.061615 
	C978.705444,191.430099 995.035034,190.274445 1011.116028,194.049622 
	C1026.379517,197.632889 1034.959473,208.271317 1038.940430,222.822205 
	C1043.127563,238.127075 1041.893799,253.877914 1042.000000,270.000000 
z"/>
<path fill="#FFFFFF" opacity="1.000000" stroke="none" 
	d="
M1091.000000,433.999634 
	C1091.000000,412.000977 1090.849609,390.500702 1091.059692,369.003967 
	C1091.175415,357.168945 1093.924194,345.898651 1101.025635,336.161621 
	C1107.820435,326.844727 1116.742065,320.669067 1128.589600,320.056915 
	C1140.156128,319.459320 1151.789917,318.541718 1163.318115,319.167206 
	C1186.265625,320.412262 1199.282471,331.945953 1205.051392,355.801392 
	C1208.424927,369.751801 1207.995850,383.887146 1207.998169,398.028992 
	C1208.003906,433.027039 1207.878906,468.025574 1208.028442,503.022980 
	C1208.252441,555.439758 1209.141602,607.858887 1208.786255,660.270447 
	C1208.625000,684.067139 1195.397949,700.714661 1170.023804,704.880432 
	C1161.323242,706.308838 1152.327271,707.312988 1143.584473,706.732178 
	C1134.333496,706.117676 1124.866089,704.400085 1116.139282,701.328552 
	C1104.318970,697.168030 1098.268066,686.960510 1096.182373,675.159607 
	C1094.031250,662.988892 1092.265625,650.568665 1092.181274,638.244995 
	C1091.777344,579.084412 1092.040771,519.919434 1091.955444,460.756226 
	C1091.942749,452.003571 1091.333252,443.251740 1091.000000,433.999634 
z"/>
<path fill="#FFFFFF" opacity="1.000000" stroke="none" 
	d="
M1970.000000,623.000000 
	C1970.000000,634.829712 1970.305298,646.169922 1969.916382,657.486267 
	C1969.505493,669.444580 1965.629639,680.505127 1957.182739,689.060608 
	C1949.660278,696.680054 1939.796021,700.828247 1929.162720,701.862549 
	C1919.149292,702.836548 1908.993042,703.310486 1898.957520,702.819763 
	C1888.832642,702.324524 1878.932495,700.210938 1870.218262,694.098328 
	C1861.031006,687.654053 1857.795410,677.860046 1856.273071,667.960327 
	C1854.186279,654.389099 1853.213501,640.529968 1853.136841,626.786499 
	C1852.813477,568.806824 1853.106567,510.824005 1852.955078,452.842896 
	C1852.879150,423.765656 1852.109009,394.689697 1852.096680,365.613007 
	C1852.090698,351.521088 1855.892822,338.202606 1865.901245,327.867126 
	C1872.853394,320.687988 1881.770264,316.175873 1892.179443,316.034821 
	C1903.507080,315.881317 1914.847412,315.713928 1926.166138,316.065369 
	C1944.268433,316.627472 1956.634033,326.075165 1962.982544,342.500732 
	C1967.495239,354.176666 1969.015137,366.371460 1969.008057,378.820160 
	C1968.986206,417.641113 1968.870483,456.462585 1969.035034,495.282837 
	C1969.214722,537.689148 1969.666748,580.094299 1970.000000,623.000000 
z"/>
<path fill="#FFFFFF" opacity="1.000000" stroke="none" 
	d="
M1858.682129,202.819611 
	C1866.682861,192.833023 1877.456299,188.242294 1889.112793,186.190308 
	C1898.259155,184.580215 1907.745850,183.778687 1917.006836,184.211121 
	C1930.428955,184.837875 1943.964478,186.853851 1954.209961,196.847794 
	C1965.213013,207.580597 1968.476562,220.816711 1966.241455,236.037491 
	C1965.234741,242.893417 1963.881470,249.359650 1960.255005,255.171707 
	C1955.280273,263.144836 1947.232910,266.976288 1938.782104,269.951447 
	C1927.285645,273.998871 1915.272705,275.683380 1903.222656,274.828217 
	C1890.908081,273.954346 1878.454590,272.911652 1867.689697,265.353546 
	C1858.251587,258.726990 1853.399414,249.314713 1852.232544,238.536819 
	C1850.915894,226.375168 1851.311646,214.007828 1858.682129,202.819611 
z"/>
<path fill="#FFFFFF" opacity="1.000000" stroke="none" 
	d="
M1107.442139,269.809418 
	C1099.684204,262.862366 1092.889526,255.483444 1091.611328,245.052383 
	C1089.651855,229.061951 1089.342529,213.134277 1102.631592,201.010681 
	C1109.925537,194.356415 1119.229126,190.830505 1128.679077,189.341873 
	C1145.363892,186.713577 1162.174561,186.141815 1178.599976,191.914673 
	C1194.016602,197.332962 1202.399292,208.104965 1205.103882,224.091476 
	C1206.932251,234.898346 1205.318970,244.947311 1201.041138,254.833496 
	C1197.222046,263.659241 1189.984985,268.387482 1181.571899,272.033997 
	C1166.700195,278.479797 1151.007324,278.638550 1135.337646,277.847443 
	C1125.712524,277.361542 1116.283447,274.972961 1107.442139,269.809418 
z"/>
<path fill="#000000" opacity="1.000000" stroke="none" 
	d="
M216.771790,494.726166 
	C242.252914,465.744598 267.484894,437.023346 292.962311,408.022675 
	C281.567047,396.117554 269.974670,384.086945 258.474884,371.968475 
	C248.005875,360.936218 237.642365,349.803864 227.223236,338.724213 
	C216.461929,327.280731 205.657227,315.877838 194.931244,304.401398 
	C184.105164,292.817841 173.352325,281.165771 161.808136,268.725525 
	C167.686188,269.924377 172.867111,270.847412 177.983276,272.046814 
	C204.770447,278.326569 231.553009,284.626953 258.313934,291.017395 
	C280.060944,296.210510 301.763733,301.589020 323.510559,306.782898 
	C330.567413,308.468323 337.764557,309.592957 344.770264,311.453369 
	C347.676392,312.225098 348.418213,311.738373 349.067322,308.907654 
	C354.281738,286.168335 359.626801,263.458649 365.013550,240.759262 
	C369.842102,220.412216 374.837921,200.104782 379.644836,179.752686 
	C385.822845,153.595657 391.889374,127.412300 397.995850,101.238380 
	C399.348816,95.439194 400.629150,89.622551 402.053162,83.841087 
	C402.224609,83.145042 403.089539,82.619804 403.633087,82.015411 
	C404.087585,82.542023 404.815887,83.004173 404.957245,83.604500 
	C411.336975,110.703102 417.619263,137.824661 424.014526,164.919571 
	C428.855438,185.428955 433.890808,205.892441 438.735107,226.401031 
	C445.209045,253.808701 451.663818,281.221710 457.879303,308.688446 
	C458.546692,311.637634 459.784576,312.445190 462.183685,311.925659 
	C486.431549,306.674622 510.625397,301.168579 534.906311,296.077179 
	C559.856995,290.845306 584.914368,286.123688 609.874512,280.935486 
	C628.000000,277.167969 646.041870,272.997986 664.127930,269.039001 
	C664.903870,268.869171 665.749390,269.017365 667.531494,269.017365 
	C660.867737,275.287872 654.854797,281.087067 648.680054,286.708496 
	C644.327637,290.670898 639.651794,294.278168 635.300964,298.242249 
	C622.746948,309.680359 610.317749,321.255524 597.775208,332.706512 
	C587.568542,342.024933 577.263550,351.235748 567.012085,360.505188 
	C552.973022,373.199341 538.954590,385.916382 524.901672,398.595184 
	C521.266602,401.874817 517.535889,405.048401 513.895203,408.230316 
	C519.552429,413.244141 524.912842,417.828949 530.086853,422.615204 
	C540.639404,432.376892 551.049805,442.292206 561.596130,452.060699 
	C573.689392,463.262024 585.859863,474.380005 598.008911,485.520905 
	C609.913086,496.437103 621.832581,507.336700 633.745300,518.243530 
	C645.534912,529.037659 657.282104,539.878479 669.127747,550.610779 
	C678.260071,558.884766 687.538086,566.997742 696.687805,575.252747 
	C697.808105,576.263489 698.534485,577.710876 700.313843,580.148132 
	C687.663269,576.115479 676.496704,572.536377 665.317688,568.996338 
	C640.561340,561.156982 615.802612,553.325195 591.037720,545.512878 
	C566.727234,537.844116 542.409851,530.197021 518.091797,522.552246 
	C499.431641,516.686157 480.743134,510.908447 462.127777,504.903748 
	C459.474152,504.047760 458.475281,503.881073 457.917389,507.089203 
	C456.203552,516.944275 454.044678,526.720886 452.187775,536.552429 
	C449.727905,549.576721 447.493225,562.644104 444.974365,575.656616 
	C441.508240,593.562744 437.813080,611.424500 434.317169,629.325012 
	C431.468079,643.913330 428.825134,658.541870 425.985779,673.132141 
	C422.779205,689.609558 419.383423,706.050171 416.202698,722.532410 
	C413.049011,738.874390 410.058289,755.247803 407.001434,771.608398 
	C406.318634,775.262878 405.709534,778.932434 404.932861,782.566467 
	C404.814453,783.120544 403.956512,783.898193 403.461456,783.883240 
	C402.963501,783.868103 402.166809,783.055847 402.056183,782.485291 
	C399.657166,770.114807 397.393799,757.717896 394.984497,745.349426 
	C392.145416,730.774536 389.136932,716.232666 386.305359,701.656372 
	C383.470856,687.064880 380.824554,672.436768 377.985016,657.846252 
	C374.778290,641.369202 371.385742,624.928223 368.189362,608.449219 
	C365.051270,592.270813 362.122406,576.051880 358.983185,559.873718 
	C355.785828,543.395996 352.426361,526.949768 349.188141,510.479858 
	C348.793976,508.475006 348.711517,506.408844 348.424469,503.830963 
	C279.730957,529.240601 211.707001,554.402527 143.683044,579.564453 
	C143.481094,579.189819 143.279129,578.815186 143.077179,578.440552 
	C146.867493,573.972351 150.574005,569.429749 154.463242,565.049377 
	C168.210495,549.566040 182.046341,534.161377 195.795486,518.679749 
	C202.763184,510.834106 209.617233,502.887482 216.771790,494.726166 
z"/>
<path fill="#000000" opacity="1.000000" stroke="none" 
	d="
M2490.000000,587.914429 
	C2489.035156,571.047546 2498.544678,560.405151 2510.155518,551.001648 
	C2526.443359,537.810303 2545.672119,531.141724 2565.833740,527.218140 
	C2575.376221,525.361084 2585.143555,524.953552 2594.961914,527.814880 
	C2606.237549,531.100952 2612.385742,539.097473 2614.761963,549.359009 
	C2619.362549,569.226501 2612.868652,586.601013 2600.375000,602.234253 
	C2592.283691,612.358948 2582.334961,620.214783 2570.784424,625.453003 
	C2550.070557,634.846924 2529.080811,635.934265 2509.196045,622.936462 
	C2496.924561,614.915283 2490.841309,602.991943 2490.000000,587.914429 
z"/>
</svg>